/* XPM */
static char * flag_shadow_xpm[] = {
"64 64 35 1",
" 	c #2C2C2C",
".	c #202020",
"+	c #7C7C7C",
"@	c #000000",
"#	c #484848",
"$	c #646464",
"%	c #707070",
"&	c #383838",
"*	c #9C9C00",
"=	c #BC7848",
"-	c #CCC400",
";	c #545454",
">	c #FCF400",
",	c #848400",
"'	c #FCF85C",
")	c #6C4824",
"!	c #A8A8A8",
"~	c #B4AC00",
"{	c #706C00",
"]	c #D40000",
"^	c #700000",
"/	c #B00000",
"(	c #880000",
"_	c #8C8C8C",
":	c #A40000",
"<	c #980000",
"[	c #7C0000",
"}	c #C80000",
"|	c #D0D0D0",
"1	c #BC0000",
"2	c #E00000",
"3	c #FC5C5C",
"4	c #C0C0C0",
"5	c #B4B4B4",
"6	c #989898",
"                                                                ",
"          .++++++++++++++++@@#$+%%%%%%++$# @..........          ",
"........@ .+%%%+%%%%%%+%%%#@@#+%#$######$ @@@#######&#&.........",
"#######*@ .+%+%%%%+%%++%%#&@@$+$$##$#$#$# @@@#+++++++%$##*######",
"+++++$=-@ .+%$$$$#$$$$;$$& @@#+$##$$$$### @@@#+++++%+++++-=+++++",
"##%;=-->,---@@-------------------------------------@@---'>--=$#$",
"$+%$)))-))))!@@@))))))))))))))))))))))))))))))))))@@!@)))~))).$$",
";+%%#.&{@....]]^@@@............................@@@^^@@...{....&$",
"#%#$$#& @@.&&]]//^^^^@@@@# @@. .&@@@@@@@@@@@@@^^^^(^.&&&&#.&&&&;",
"$$%##;& @@.$_]]//:<([^^[(:}|@|}:(^_@%^^^[<:122]]/:(^.&#+#;&#;#;#",
";#;;;#..@@.#+]]//:<([^^[(:}|@|}:(^_@%^^^[<:122]]/:(^.&#;#&#$#$##",
"##### ..@@.#+]]//:<([^^[(:}|@|}:(^_@%^^^[<:122]]/:(^.     &&&&&&",
"&&&& .@@@@ .+]]//:<([^^[(:}|@|}:(^_@%^^^[<:122]]/:(^..          ",
"...  @@@@@ .$]]//:<([^^[(:}|@|}:(^_@%^^^[<:122]]/:(^@@@@@@@@@@@@",
"@@@@@@@@@@ .#]]//:<([^^[(:}|@|}:(^_@%^^^[<:122]]/:(^@@@@@@@@@@@@",
"@@@@@@@@@@ .#]]//:<([^^[(:}|@|}:(^_@%^^^[<:122]]/:(^............",
";;;;;;;;;@@ .]]//:<([^^[(:}|@|}:(^_@%^^^[<:122]]/:(^.&##;;;;;;;;",
"++++++%%#@@ .]]//:<([^^[(:3|@|}:(^_@%^^^[<:122]]/:(^.&#$++++++++",
"$;#$#$$#%@@ .]]//:<([^^[(3||@|445!_@%%&^[<:122]]/:(^.&#%%%%%%%%%",
"$#$#$####@@. ]]//:<([^^[#5| @|445!_+@@;#@<:122]]/:(^.&#;$;$#;#;;",
"$;#$#$$# @@. ]]//:<([^^#6@@|%@@@@@@@%%@@%#:122]]/:(^.&#;#;#;&&##",
"$#$#$### @@. ]]//:<([^#6@#| @|445!_+@@;#@+#122]]/:(^.&#;$;$#;#;;",
"#$&&##$# @@@ ]]//:<([^_@#5@|| @@$!_+%#@##@_122]]/:(^.&#;#;#;&&##",
"##&&#$#&.@@@#]]//:<([+@#6@||$@@@ !_+%%;@%#@!22]]/:(^.&##$#$#&&#;",
"##$$###&.@@@+]]//:<(&+@6@5|$@@@ $!_ @@;#@+@!%2]]/:(^.&#;#;##$#$#",
";$##$## @@@@+]]//:<($@_@65$ @@ $5! @@@@#%@_@42]]1:(^.&&   &&#&##",
"&&&&& .@@@@@+|||!_%$$@_@6+@ @@ $5 @@@@@@%@#@4445!+$#@@.......   ",
" ..@@@@@@@@@+;;@@@@@@+@665$ @@@  @@@@@@@@#@!@&  @@@@@@@@@@@@@@@.",
"@@@@@@......+|||!_%$$+@665|$@@@@@@@@@@@@@+@!4445!+$#@@@@@@@@@@@@",
".&&##;####.@+]]//:<($+@665||$@@@@@@@%@@@@+@!42]]/<(^..       @@@",
"&#%+++%%%$#@+]]//:<($+@6@$||| @@@@@&%%@@@+@!42]]/<(^.&##& ..... ",
"&%%%+%$$;$.@_]]//:<($+@6@@$|$@@@@@@@&%;#%+@!42]]/<(^.&#$+++++;@ ",
"&+%$$#$;$#$@_|||!_%$$+@6@@@ @@@@ @@@@&;#%+@!4445!+$#.&#$##$##&@ ",
"&+%;#$#$#$#@_;;@@@@@@+@6 @@ @@@$5 @@@@;#%#@!@&  @@@@.&##$$#$#&@.",
"&+$;$#$$&$ @+|||!_$$$@#@6 @ @@$45! @@@@#%@_@4445!+$#.&######$&@.",
"&+%$##$;$# @+]]//:<($@_@65$ @$445! @@@@#%@_@42]]/:(^.&######$ @.",
"&+%#$$#$#$ @+]]//:<([+@6@5||||445 @@@@;#@+@!$2]]/:(^.&###$##$ @@",
"&+%$$#$;$# @%]]//:<([+@66@||||445@@@@%;@%#@422]]/:(^ .        @@",
"&+%#$$#$&$ @;]]//:<([^_@65@|||445 @@%@@##@_#22]]/:(^@@@@@@@@@@@@",
"&+%##;$#$# @&]]//:<([^36@5| @|445!_+@@;@@+$122]]/:(^@@@@@@@@@@@@",
"&+%$$#;$;$ @ ]]//:<([^^36@@||@@@@@@@%%@@%$:122]]/:(^.&&&&&&&&&@ ",
"&+%##$#$## @.]]//:<([^^[35+ @|445!_#@@;##<:122]]/:(^.&#$+++++&@ ",
"&%%$$;$#$ .@.]]//:<([^^[(:%|@|445!_@%%&^[<:122]]/:(^.&#_++%%;&@.",
"&%%;$#$$# .@.]]//:<([^^[(:}|@|}:(^_@%^^^[<:122]]/:(^.&#+%++%& @.",
"&+%$#$### .@.]]//:<([^^[(:}|@|}:(^_@%^^^[<:122]]/:(^.&#$#$#$# @@",
".+##$#### @@.]]//:<([^^[(:}|@|}:(^_@%^^^[<:122]]/:(^.&##$$$## @@",
".%$$$#   .@@.]]//:<([^^[(:}|@|}:(^_@%^^^[<:122]]/:(^.&#$#$#$# @@",
".&&&     .@@.]]//:<([^^[(:}|@|}:(^_@%^^^[<:122]]/:(^.&#$&;#;# @@",
".@@@.    @@..]]//:<([^^[(:}|@|}:(^_@%^^^[<:122]]/:(^.&##$#&&# @@",
"   .@@@@@@@.@]]//:<([^^[(:}|@|}:(^_@%^^^[<:122]]/:(^.&#&#;&&# @@",
".......@@@@.@]]//:<([^^[(:}|@|}:(^_@%^^^[<:122]]/:(^.&#####;# @@",
".&$$$$;#&.. @]]//:<([^^[(:}|@|}:(^_@%^^^[<:122]]/:(^.&&&&&&&& @@",
".$+++++++$$##]]//:<([^^[(:}|@|}:(^_@%^^^[<:122]]/:(^.        .@@",
".$+$$#+%++++$]]//:<([^^[(:}|@|}:(^_@%^^^[<:122]]/:(^@@......@@@.",
".$+$$$%%#$+++]]//:<([^^[(:}|@|}:(^_@%^^^[<:122]]/:(^@@@@@@@@@@..",
".$+$#$&&$;#&$]]//:<([^^[(:}|@|}:(^_@%^^^[<:122]]/:(^@@@@@@@@... ",
".$%$$$;$#;#;$##..........^^+@+^^^^&@&@@@@^^:22]]/:(.........    ",
".$+$#$&&;$#$$;#&$&&&&&&&  ..........................  #+%+%;&.. ",
".$#&&&&&&&&&&&&&&&&&&&&&&&&&&&&  @@@.       && &     ##$;$#$+;@ ",
".#&..............................@@@.%$;#####&.#######$#$#$#$ @ ",
".@@@@@@@@@@@@@@@@@@@@@@@@@@@@@@@@@@@.@.@  &&&&.+$;;$$;;$;$$## @ ",
" .@@@@@@@@@@@@@@@@@@@@@@@@@@@@@@@@@@@  .@@@@@@@               @ ",
"    .................................   ..@@@@@  @@@@@@@@@@@@@@ ",
"&&&&&&&&&&&&&&&&&&&&&&&&&&&&&&&&&&&&&&&&&&&&&&&&&&&&&&&&&&&&&&&&"};
